<svg xmlns="http://www.w3.org/2000/svg" viewBox="0 0 64 64"><title>transfer money</title><g id="transfer_money" data-name="transfer money"><path d="M46.3,57.63A1,1,0,0,1,45.53,56l.52-.62a2.28,2.28,0,0,0-1.75-3.74,1,1,0,0,1,0-2h12a1,1,0,0,1,.51,1.86l-10,6A1,1,0,0,1,46.3,57.63Zm1.62-6a4.17,4.17,0,0,1,.26.46,4.29,4.29,0,0,1,.4,2l4.11-2.46Z"/><path d="M44.3,51.63h-28a1,1,0,0,1,0-2h28a1,1,0,0,1,0,2Z"/><path d="M20.3,14.63H8.3a1,1,0,0,1-.51-1.86l10-6a1,1,0,0,1,1.28,1.5l-.52.62a2.28,2.28,0,0,0,1.75,3.74,1,1,0,0,1,0,2Zm-8.39-2h4.77a4.17,4.17,0,0,1-.26-.46,4.29,4.29,0,0,1-.4-2Z"/><path d="M48.3,14.63h-28a1,1,0,0,1,0-2h28a1,1,0,0,1,0,2Z"/><path d="M46,43H22a1,1,0,0,1-1-1,2,2,0,0,0-2-2,1,1,0,0,1-1-1V29a1,1,0,0,1,1-1,2,2,0,0,0,2-2,1,1,0,0,1,1-1H46a1,1,0,0,1,1,1,2,2,0,0,0,2,2,1,1,0,0,1,1,1V39a1,1,0,0,1-1,1,2,2,0,0,0-2,2A1,1,0,0,1,46,43ZM22.87,41H45.13A4,4,0,0,1,48,38.13V29.87A4,4,0,0,1,45.13,27H22.87A4,4,0,0,1,20,29.87v8.26A4,4,0,0,1,22.87,41Z"/><path d="M34,39a5,5,0,1,1,5-5A5,5,0,0,1,34,39Zm0-8a3,3,0,1,0,3,3A3,3,0,0,0,34,31Z"/><path d="M25,36a2,2,0,1,1,2-2A2,2,0,0,1,25,36Zm0-2Z"/><path d="M43,36a2,2,0,1,1,2-2A2,2,0,0,1,43,36Zm0-2Z"/><path d="M49,47H19a5,5,0,0,1-5-5V26a5,5,0,0,1,5-5H49a5,5,0,0,1,5,5V42A5,5,0,0,1,49,47ZM19,23a3,3,0,0,0-3,3V42a3,3,0,0,0,3,3H49a3,3,0,0,0,3-3V26a3,3,0,0,0-3-3Z"/><path d="M15,43a5,5,0,0,1-5-5V22a5,5,0,0,1,5-5H45a5,5,0,0,1,5,5,1,1,0,0,1-1,1H19a3,3,0,0,0-3,3V42A1,1,0,0,1,15,43Zm0-24a3,3,0,0,0-3,3V38a3,3,0,0,0,2,2.83V26a5,5,0,0,1,5-5H47.83A3,3,0,0,0,45,19Z"/></g></svg>