<svg xmlns="http://www.w3.org/2000/svg" xmlns:xlink="http://www.w3.org/1999/xlink" width="590" zoomAndPan="magnify" viewBox="0 0 442.5 149.999998" height="200" preserveAspectRatio="xMidYMid meet" version="1.0"><defs><g/><clipPath id="8ce4ff86b9"><path d="M 353.609375 32.554688 L 435.808594 32.554688 L 435.808594 114.753906 L 353.609375 114.753906 Z M 353.609375 32.554688 " clip-rule="nonzero"/></clipPath><clipPath id="04e8f6fe78"><path d="M 364.511719 43.125 L 425.605469 43.125 L 425.605469 104.21875 L 364.511719 104.21875 Z M 364.511719 43.125 " clip-rule="nonzero"/></clipPath><clipPath id="deee66a417"><path d="M 369.503906 52.011719 L 416.15625 52.011719 L 416.15625 98.664062 L 369.503906 98.664062 Z M 369.503906 52.011719 " clip-rule="nonzero"/></clipPath></defs><g clip-path="url(#8ce4ff86b9)"><path fill="#00bf63" d="M 435.617188 73.574219 C 435.617188 96.203125 417.269531 114.550781 394.636719 114.550781 C 388.585938 114.558594 382.816406 113.285156 377.332031 110.726562 C 375.695312 109.960938 373.984375 109.46875 372.191406 109.25 C 370.398438 109.03125 368.617188 109.097656 366.84375 109.445312 L 360.445312 110.703125 C 357.734375 111.238281 355.625 108.378906 356.929688 105.945312 C 359.460938 101.230469 359.660156 95.59375 357.417969 90.734375 C 354.917969 85.320312 353.667969 79.632812 353.660156 73.671875 C 353.609375 51.019531 371.925781 32.628906 394.578125 32.597656 C 417.234375 32.5625 435.617188 50.921875 435.617188 73.574219 Z M 435.617188 73.574219 " fill-opacity="1" fill-rule="nonzero"/></g><path fill="#ffffff" d="M 429.714844 73.574219 C 429.714844 74.722656 429.660156 75.867188 429.546875 77.011719 C 429.433594 78.152344 429.265625 79.289062 429.039062 80.414062 C 428.816406 81.542969 428.539062 82.65625 428.203125 83.753906 C 427.871094 84.855469 427.484375 85.933594 427.042969 86.996094 C 426.605469 88.058594 426.113281 89.09375 425.574219 90.109375 C 425.03125 91.121094 424.441406 92.105469 423.804688 93.058594 C 423.164062 94.015625 422.480469 94.9375 421.753906 95.824219 C 421.023438 96.710938 420.253906 97.5625 419.441406 98.375 C 418.628906 99.1875 417.777344 99.957031 416.890625 100.6875 C 416.003906 101.414062 415.082031 102.097656 414.125 102.738281 C 413.171875 103.375 412.1875 103.964844 411.171875 104.507812 C 410.160156 105.046875 409.121094 105.539062 408.0625 105.980469 C 407 106.417969 405.921875 106.804688 404.820312 107.136719 C 403.722656 107.472656 402.609375 107.75 401.480469 107.976562 C 400.355469 108.199219 399.21875 108.367188 398.078125 108.480469 C 396.933594 108.59375 395.789062 108.648438 394.636719 108.648438 C 393.488281 108.648438 392.34375 108.59375 391.199219 108.480469 C 390.058594 108.367188 388.921875 108.199219 387.796875 107.976562 C 386.667969 107.75 385.554688 107.472656 384.457031 107.136719 C 383.355469 106.804688 382.277344 106.417969 381.214844 105.980469 C 380.152344 105.539062 379.117188 105.046875 378.105469 104.507812 C 377.089844 103.964844 376.105469 103.375 375.152344 102.738281 C 374.195312 102.097656 373.273438 101.414062 372.386719 100.6875 C 371.5 99.957031 370.648438 99.1875 369.835938 98.375 C 369.023438 97.5625 368.253906 96.710938 367.523438 95.824219 C 366.796875 94.9375 366.113281 94.015625 365.472656 93.058594 C 364.835938 92.105469 364.246094 91.121094 363.703125 90.109375 C 363.164062 89.09375 362.671875 88.058594 362.230469 86.996094 C 361.792969 85.933594 361.40625 84.855469 361.074219 83.753906 C 360.738281 82.65625 360.460938 81.542969 360.234375 80.414062 C 360.011719 79.289062 359.84375 78.152344 359.730469 77.011719 C 359.617188 75.867188 359.5625 74.722656 359.5625 73.574219 C 359.5625 72.421875 359.617188 71.277344 359.730469 70.132812 C 359.84375 68.992188 360.011719 67.855469 360.234375 66.730469 C 360.460938 65.601562 360.738281 64.488281 361.074219 63.390625 C 361.40625 62.292969 361.792969 61.210938 362.230469 60.148438 C 362.671875 59.089844 363.164062 58.050781 363.703125 57.039062 C 364.246094 56.023438 364.835938 55.039062 365.472656 54.085938 C 366.113281 53.128906 366.796875 52.207031 367.523438 51.320312 C 368.253906 50.433594 369.023438 49.582031 369.835938 48.769531 C 370.648438 47.957031 371.5 47.1875 372.386719 46.457031 C 373.273438 45.730469 374.195312 45.046875 375.152344 44.40625 C 376.105469 43.769531 377.089844 43.179688 378.105469 42.636719 C 379.117188 42.097656 380.152344 41.605469 381.214844 41.167969 C 382.277344 40.726562 383.355469 40.339844 384.457031 40.007812 C 385.554688 39.671875 386.667969 39.394531 387.796875 39.171875 C 388.921875 38.945312 390.058594 38.777344 391.199219 38.664062 C 392.34375 38.550781 393.488281 38.496094 394.636719 38.496094 C 395.789062 38.496094 396.933594 38.550781 398.078125 38.664062 C 399.21875 38.777344 400.355469 38.945312 401.480469 39.171875 C 402.609375 39.394531 403.722656 39.671875 404.820312 40.007812 C 405.921875 40.339844 407 40.726562 408.0625 41.167969 C 409.121094 41.605469 410.160156 42.097656 411.171875 42.636719 C 412.1875 43.179688 413.171875 43.769531 414.125 44.40625 C 415.082031 45.046875 416.003906 45.730469 416.890625 46.457031 C 417.777344 47.1875 418.628906 47.957031 419.441406 48.769531 C 420.253906 49.582031 421.023438 50.433594 421.753906 51.320312 C 422.480469 52.207031 423.164062 53.128906 423.804688 54.085938 C 424.441406 55.039062 425.03125 56.023438 425.574219 57.039062 C 426.113281 58.050781 426.605469 59.089844 427.042969 60.148438 C 427.484375 61.210938 427.871094 62.292969 428.203125 63.390625 C 428.539062 64.488281 428.816406 65.601562 429.039062 66.730469 C 429.265625 67.855469 429.433594 68.992188 429.546875 70.132812 C 429.660156 71.277344 429.714844 72.421875 429.714844 73.574219 Z M 429.714844 73.574219 " fill-opacity="1" fill-rule="nonzero"/><path fill="#00bf63" d="M 423.453125 73.574219 C 423.453125 74.515625 423.40625 75.457031 423.3125 76.398438 C 423.21875 77.335938 423.082031 78.269531 422.898438 79.195312 C 422.714844 80.121094 422.484375 81.035156 422.210938 81.9375 C 421.9375 82.839844 421.617188 83.726562 421.257812 84.597656 C 420.898438 85.46875 420.492188 86.324219 420.050781 87.15625 C 419.605469 87.988281 419.121094 88.796875 418.59375 89.582031 C 418.070312 90.363281 417.507812 91.121094 416.910156 91.851562 C 416.3125 92.582031 415.679688 93.277344 415.011719 93.945312 C 414.34375 94.613281 413.648438 95.246094 412.917969 95.84375 C 412.1875 96.445312 411.429688 97.003906 410.644531 97.53125 C 409.863281 98.054688 409.054688 98.539062 408.21875 98.984375 C 407.386719 99.429688 406.535156 99.832031 405.664062 100.191406 C 404.792969 100.554688 403.90625 100.871094 403.003906 101.144531 C 402.097656 101.417969 401.183594 101.648438 400.257812 101.832031 C 399.335938 102.015625 398.402344 102.152344 397.460938 102.246094 C 396.523438 102.339844 395.582031 102.386719 394.636719 102.386719 C 393.695312 102.386719 392.753906 102.339844 391.8125 102.246094 C 390.875 102.152344 389.941406 102.015625 389.015625 101.832031 C 388.09375 101.648438 387.175781 101.417969 386.273438 101.144531 C 385.371094 100.871094 384.484375 100.554688 383.613281 100.191406 C 382.742188 99.832031 381.886719 99.429688 381.054688 98.984375 C 380.222656 98.539062 379.414062 98.054688 378.632812 97.53125 C 377.847656 97.003906 377.089844 96.445312 376.359375 95.84375 C 375.628906 95.246094 374.933594 94.613281 374.265625 93.945312 C 373.597656 93.277344 372.964844 92.582031 372.367188 91.851562 C 371.765625 91.121094 371.207031 90.363281 370.679688 89.582031 C 370.15625 88.796875 369.671875 87.988281 369.226562 87.15625 C 368.78125 86.324219 368.378906 85.46875 368.019531 84.597656 C 367.65625 83.726562 367.339844 82.839844 367.066406 81.9375 C 366.792969 81.035156 366.5625 80.121094 366.378906 79.195312 C 366.195312 78.269531 366.058594 77.335938 365.964844 76.398438 C 365.871094 75.457031 365.824219 74.515625 365.824219 73.574219 C 365.824219 72.628906 365.871094 71.6875 365.964844 70.75 C 366.058594 69.808594 366.195312 68.878906 366.378906 67.953125 C 366.5625 67.027344 366.792969 66.113281 367.066406 65.207031 C 367.339844 64.304688 367.65625 63.417969 368.019531 62.546875 C 368.378906 61.675781 368.78125 60.824219 369.226562 59.992188 C 369.671875 59.15625 370.15625 58.351562 370.679688 57.566406 C 371.207031 56.78125 371.765625 56.023438 372.367188 55.292969 C 372.964844 54.566406 373.597656 53.867188 374.265625 53.199219 C 374.933594 52.53125 375.628906 51.898438 376.359375 51.300781 C 377.089844 50.703125 377.847656 50.140625 378.632812 49.617188 C 379.414062 49.089844 380.222656 48.605469 381.054688 48.160156 C 381.886719 47.71875 382.742188 47.3125 383.613281 46.953125 C 384.484375 46.59375 385.371094 46.273438 386.273438 46 C 387.175781 45.726562 388.09375 45.496094 389.015625 45.3125 C 389.941406 45.128906 390.875 44.992188 391.8125 44.898438 C 392.753906 44.804688 393.695312 44.761719 394.636719 44.761719 C 395.582031 44.761719 396.523438 44.804688 397.460938 44.898438 C 398.402344 44.992188 399.335938 45.128906 400.257812 45.3125 C 401.183594 45.496094 402.097656 45.726562 403.003906 46 C 403.90625 46.273438 404.792969 46.59375 405.664062 46.953125 C 406.535156 47.3125 407.386719 47.71875 408.21875 48.160156 C 409.054688 48.605469 409.863281 49.089844 410.644531 49.617188 C 411.429688 50.140625 412.1875 50.703125 412.917969 51.300781 C 413.648438 51.898438 414.34375 52.53125 415.011719 53.199219 C 415.679688 53.867188 416.3125 54.566406 416.910156 55.292969 C 417.507812 56.023438 418.070312 56.78125 418.59375 57.566406 C 419.121094 58.351562 419.605469 59.15625 420.050781 59.992188 C 420.492188 60.824219 420.898438 61.675781 421.257812 62.546875 C 421.617188 63.417969 421.9375 64.304688 422.210938 65.207031 C 422.484375 66.113281 422.714844 67.027344 422.898438 67.953125 C 423.082031 68.878906 423.21875 69.808594 423.3125 70.75 C 423.40625 71.6875 423.453125 72.628906 423.453125 73.574219 Z M 423.453125 73.574219 " fill-opacity="1" fill-rule="nonzero"/><path fill="#ffffff" d="M 390.417969 67.105469 L 388.960938 62.757812 C 388.878906 62.507812 388.769531 62.269531 388.636719 62.046875 C 388.503906 61.820312 388.347656 61.609375 388.167969 61.417969 C 387.992188 61.226562 387.796875 61.054688 387.582031 60.902344 C 387.371094 60.75 387.140625 60.625 386.902344 60.519531 C 386.660156 60.417969 386.414062 60.339844 386.15625 60.289062 C 385.898438 60.238281 385.640625 60.214844 385.378906 60.21875 C 385.117188 60.222656 384.855469 60.253906 384.601562 60.3125 C 384.347656 60.371094 384.101562 60.457031 383.863281 60.566406 L 381.515625 61.660156 C 381.132812 61.839844 380.789062 62.074219 380.488281 62.371094 C 380.183594 62.664062 379.941406 63.003906 379.753906 63.378906 C 379.566406 63.757812 379.445312 64.15625 379.394531 64.578125 C 379.34375 64.996094 379.363281 65.410156 379.453125 65.824219 C 380.921875 72.621094 386.324219 88.898438 404.566406 90.925781 C 404.929688 90.96875 405.289062 90.953125 405.648438 90.890625 C 406.007812 90.824219 406.347656 90.707031 406.671875 90.542969 C 406.996094 90.378906 407.289062 90.167969 407.554688 89.917969 C 407.816406 89.664062 408.039062 89.378906 408.21875 89.0625 L 409.425781 86.921875 C 409.671875 86.492188 409.820312 86.035156 409.882812 85.546875 C 409.941406 85.054688 409.90625 84.574219 409.773438 84.097656 C 409.644531 83.621094 409.425781 83.191406 409.121094 82.800781 C 408.820312 82.414062 408.453125 82.097656 408.023438 81.855469 L 407.996094 81.839844 L 404.746094 80.035156 C 404.394531 79.835938 404.019531 79.703125 403.625 79.628906 C 403.230469 79.554688 402.832031 79.542969 402.433594 79.601562 C 402.035156 79.65625 401.652344 79.769531 401.292969 79.949219 C 400.929688 80.128906 400.609375 80.359375 400.320312 80.640625 C 400.039062 80.925781 399.714844 81.15625 399.359375 81.332031 C 399 81.511719 398.621094 81.628906 398.226562 81.683594 C 397.828125 81.742188 397.433594 81.734375 397.042969 81.660156 C 396.648438 81.589844 396.273438 81.457031 395.921875 81.265625 C 393.945312 80.179688 391.238281 78.328125 389.335938 75.589844 C 389.125 75.285156 388.960938 74.953125 388.84375 74.597656 C 388.730469 74.242188 388.671875 73.875 388.667969 73.5 C 388.664062 73.128906 388.714844 72.761719 388.820312 72.402344 C 388.925781 72.042969 389.082031 71.707031 389.289062 71.398438 L 389.988281 70.34375 C 390.304688 69.867188 390.5 69.34375 390.578125 68.773438 C 390.652344 68.207031 390.597656 67.648438 390.417969 67.105469 Z M 390.417969 67.105469 " fill-opacity="1" fill-rule="nonzero"/><g clip-path="url(#04e8f6fe78)"><path fill="#ffffff" d="M 425.605469 73.671875 C 425.605469 74.671875 425.554688 75.667969 425.457031 76.664062 C 425.359375 77.660156 425.214844 78.648438 425.019531 79.628906 C 424.824219 80.613281 424.582031 81.582031 424.289062 82.539062 C 424 83.496094 423.664062 84.4375 423.28125 85.359375 C 422.898438 86.285156 422.46875 87.1875 422 88.070312 C 421.527344 88.953125 421.011719 89.808594 420.457031 90.640625 C 419.902344 91.472656 419.304688 92.277344 418.671875 93.050781 C 418.039062 93.824219 417.367188 94.5625 416.660156 95.269531 C 415.953125 95.976562 415.210938 96.648438 414.4375 97.285156 C 413.664062 97.917969 412.863281 98.515625 412.03125 99.070312 C 411.199219 99.625 410.339844 100.140625 409.457031 100.609375 C 408.578125 101.082031 407.671875 101.507812 406.75 101.890625 C 405.824219 102.273438 404.882812 102.613281 403.925781 102.902344 C 402.96875 103.191406 402 103.433594 401.019531 103.628906 C 400.039062 103.824219 399.046875 103.972656 398.054688 104.070312 C 397.058594 104.167969 396.058594 104.21875 395.058594 104.21875 C 394.058594 104.21875 393.0625 104.167969 392.066406 104.070312 C 391.070312 103.972656 390.082031 103.824219 389.101562 103.628906 C 388.117188 103.433594 387.148438 103.191406 386.191406 102.902344 C 385.234375 102.613281 384.292969 102.273438 383.371094 101.890625 C 382.445312 101.507812 381.542969 101.082031 380.660156 100.609375 C 379.777344 100.140625 378.921875 99.625 378.089844 99.070312 C 377.257812 98.515625 376.453125 97.917969 375.679688 97.285156 C 374.90625 96.648438 374.167969 95.976562 373.460938 95.269531 C 372.753906 94.5625 372.082031 93.824219 371.445312 93.050781 C 370.8125 92.277344 370.214844 91.472656 369.660156 90.640625 C 369.105469 89.808594 368.589844 88.953125 368.121094 88.070312 C 367.648438 87.1875 367.21875 86.285156 366.835938 85.359375 C 366.453125 84.4375 366.117188 83.496094 365.828125 82.539062 C 365.539062 81.582031 365.292969 80.613281 365.097656 79.628906 C 364.90625 78.648438 364.757812 77.660156 364.660156 76.664062 C 364.5625 75.667969 364.511719 74.671875 364.511719 73.671875 C 364.511719 72.671875 364.5625 71.671875 364.660156 70.675781 C 364.757812 69.679688 364.90625 68.691406 365.097656 67.710938 C 365.292969 66.730469 365.539062 65.761719 365.828125 64.804688 C 366.117188 63.847656 366.453125 62.90625 366.835938 61.980469 C 367.21875 61.058594 367.648438 60.152344 368.121094 59.273438 C 368.589844 58.390625 369.105469 57.53125 369.660156 56.699219 C 370.214844 55.867188 370.8125 55.066406 371.445312 54.292969 C 372.082031 53.519531 372.753906 52.777344 373.460938 52.070312 C 374.167969 51.363281 374.90625 50.691406 375.679688 50.058594 C 376.453125 49.425781 377.257812 48.828125 378.089844 48.273438 C 378.921875 47.71875 379.777344 47.203125 380.660156 46.730469 C 381.542969 46.261719 382.445312 45.832031 383.371094 45.449219 C 384.292969 45.066406 385.234375 44.730469 386.191406 44.441406 C 387.148438 44.148438 388.117188 43.90625 389.101562 43.710938 C 390.082031 43.515625 391.070312 43.371094 392.066406 43.273438 C 393.0625 43.171875 394.058594 43.125 395.058594 43.125 C 396.058594 43.125 397.058594 43.171875 398.054688 43.273438 C 399.046875 43.371094 400.039062 43.515625 401.019531 43.710938 C 402 43.90625 402.96875 44.148438 403.925781 44.441406 C 404.882812 44.730469 405.824219 45.066406 406.75 45.449219 C 407.671875 45.832031 408.578125 46.261719 409.457031 46.730469 C 410.339844 47.203125 411.199219 47.71875 412.03125 48.273438 C 412.863281 48.828125 413.664062 49.425781 414.4375 50.058594 C 415.210938 50.691406 415.953125 51.363281 416.660156 52.070312 C 417.367188 52.777344 418.039062 53.519531 418.671875 54.292969 C 419.304688 55.066406 419.902344 55.867188 420.457031 56.699219 C 421.011719 57.53125 421.527344 58.390625 422 59.273438 C 422.46875 60.152344 422.898438 61.058594 423.28125 61.980469 C 423.664062 62.90625 424 63.847656 424.289062 64.804688 C 424.582031 65.761719 424.824219 66.730469 425.019531 67.710938 C 425.214844 68.691406 425.359375 69.679688 425.457031 70.675781 C 425.554688 71.671875 425.605469 72.671875 425.605469 73.671875 Z M 425.605469 73.671875 " fill-opacity="1" fill-rule="nonzero"/></g><g clip-path="url(#deee66a417)"><path fill="#00bf63" d="M 411.023438 52.011719 C 403.25 52.011719 392.824219 57.34375 385.820312 66.507812 L 380.015625 66.507812 C 375.820312 66.507812 373.417969 69.640625 371.761719 72.953125 L 369.546875 77.382812 L 380.015625 77.382812 L 390.890625 88.257812 L 390.890625 98.726562 L 395.320312 96.511719 C 398.632812 94.855469 401.761719 92.453125 401.761719 88.257812 L 401.761719 82.453125 C 410.929688 75.449219 416.261719 65.019531 416.261719 57.25 L 416.261719 52.011719 Z M 401.761719 62.882812 C 403.765625 62.882812 405.386719 64.507812 405.386719 66.507812 C 405.386719 68.511719 403.765625 70.132812 401.761719 70.132812 C 399.761719 70.132812 398.140625 68.511719 398.140625 66.507812 C 398.140625 64.507812 399.761719 62.882812 401.761719 62.882812 Z M 378.203125 84.632812 L 376.390625 86.445312 C 373.773438 89.0625 372.765625 95.503906 372.765625 95.503906 C 372.765625 95.503906 378.921875 94.789062 381.828125 91.882812 L 383.640625 90.070312 Z M 378.203125 84.632812 " fill-opacity="1" fill-rule="nonzero"/></g><g fill="#000000" fill-opacity="1"><g transform="translate(4.058325, 98.103815)"><g><path d="M 57.453125 -41.40625 L 48.550781 -10.664062 L 38.507812 -41.40625 L 30.226562 -41.40625 L 20.1875 -10.871094 L 11.285156 -41.40625 L 0.207031 -41.40625 L 14.492188 0 L 24.949219 0 L 34.367188 -28.054688 L 43.683594 0 L 54.242188 0 L 68.324219 -41.40625 Z M 57.453125 -41.40625 "/></g></g></g><g fill="#000000" fill-opacity="1"><g transform="translate(72.680371, 98.103815)"><g><path d="M 26.8125 -42.234375 C 22.980469 -42.234375 19.460938 -40.785156 16.667969 -38.40625 L 16.667969 -73.707031 L 6.832031 -73.707031 L 6.832031 0 L 16.667969 0 L 16.667969 -24.949219 C 16.667969 -29.398438 20.1875 -33.125 24.636719 -33.125 C 28.984375 -33.125 32.402344 -29.710938 32.402344 -25.363281 L 32.402344 0 L 42.234375 0 L 42.234375 -26.292969 C 42.234375 -35.300781 35.402344 -42.234375 26.8125 -42.234375 Z M 26.8125 -42.234375 "/></g></g></g><g fill="#000000" fill-opacity="1"><g transform="translate(121.015951, 98.103815)"><g><path d="M 51.964844 -8.074219 C 50 -8.074219 48.136719 -9.109375 48.136719 -12.734375 L 48.136719 -41.40625 L 38.300781 -41.40625 L 38.300781 -37.058594 C 34.78125 -40.269531 30.226562 -42.234375 24.949219 -42.234375 C 13.25 -42.234375 3.933594 -32.710938 3.933594 -20.703125 C 3.933594 -8.695312 13.25 0.828125 24.949219 0.828125 C 30.953125 0.828125 36.230469 -1.863281 39.75 -6.109375 C 41.820312 -1.96875 45.859375 0.828125 50.929688 0.828125 C 52.171875 0.828125 53.3125 0.519531 54.242188 0 L 54.242188 -8.074219 Z M 26.191406 -8.28125 C 19.253906 -8.28125 13.769531 -13.769531 13.769531 -20.703125 C 13.769531 -27.640625 19.253906 -33.125 26.191406 -33.125 C 33.023438 -33.125 38.613281 -27.640625 38.613281 -20.703125 C 38.613281 -13.769531 33.023438 -8.28125 26.191406 -8.28125 Z M 26.191406 -8.28125 "/></g></g></g><g fill="#000000" fill-opacity="1"><g transform="translate(176.700194, 98.103815)"><g><path d="M 28.777344 -33.125 L 28.777344 -41.40625 L 18.324219 -41.40625 L 18.324219 -58.382812 L 8.488281 -58.382812 L 8.488281 -41.40625 L 1.65625 -41.40625 L 1.65625 -33.125 L 8.488281 -33.125 L 8.488281 -12.835938 C 8.488281 -5.175781 15.011719 0.828125 22.566406 0.828125 C 24.949219 0.828125 27.535156 0.207031 28.570312 -0.519531 L 28.570312 -8.074219 L 23.808594 -8.074219 C 20.703125 -8.074219 18.324219 -10.351562 18.324219 -13.976562 L 18.324219 -33.125 Z M 28.777344 -33.125 "/></g></g></g><g fill="#000000" fill-opacity="1"><g transform="translate(208.164908, 98.103815)"><g><path d="M 18.53125 0.828125 C 26.8125 0.828125 32.710938 -4.453125 32.710938 -11.90625 C 32.710938 -19.773438 26.085938 -22.878906 20.496094 -25.15625 C 16.460938 -26.8125 14.492188 -27.640625 14.492188 -30.226562 C 14.492188 -32.609375 16.148438 -33.953125 18.945312 -33.953125 C 21.636719 -33.953125 24.015625 -32.710938 25.15625 -30.847656 L 31.367188 -35.921875 C 29.191406 -39.441406 23.914062 -42.234375 18.324219 -42.234375 C 10.558594 -42.234375 4.761719 -36.957031 4.761719 -29.710938 C 4.761719 -22.359375 10.871094 -19.253906 17.082031 -16.976562 C 21.429688 -15.21875 23.394531 -14.078125 23.394531 -11.699219 C 23.394531 -9.109375 21.117188 -7.660156 18.21875 -7.660156 C 15.21875 -7.660156 11.90625 -9.109375 10.664062 -12.320312 L 2.691406 -8.695312 C 4.660156 -3.003906 11.59375 0.828125 18.53125 0.828125 Z M 18.53125 0.828125 "/></g></g></g><g fill="#e2424d" fill-opacity="1"><g transform="translate(243.359227, 98.103815)"><g><path d="M 12.214844 -48.757812 C 15.425781 -48.757812 18.117188 -51.449219 18.117188 -54.554688 C 18.117188 -57.867188 15.425781 -60.453125 12.214844 -60.453125 C 9.007812 -60.453125 6.316406 -57.867188 6.316406 -54.554688 C 6.316406 -51.449219 9.007812 -48.757812 12.214844 -48.757812 Z M 3.105469 24.84375 C 10.664062 24.84375 17.082031 18.839844 17.082031 11.179688 L 17.082031 -41.40625 L 7.351562 -41.40625 L 7.351562 10.042969 C 7.351562 13.664062 4.867188 15.941406 1.863281 15.941406 L -3.003906 15.941406 L -3.003906 23.5 C -1.863281 24.222656 0.621094 24.84375 3.105469 24.84375 Z M 3.105469 24.84375 "/></g></g></g><g fill="#e2424d" fill-opacity="1"><g transform="translate(267.785773, 98.103815)"><g><path d="M 47.929688 -20.910156 C 47.722656 -33.332031 38.613281 -42.234375 26.085938 -42.234375 C 13.457031 -42.234375 3.933594 -33.125 3.933594 -20.703125 C 3.933594 -8.28125 13.355469 0.828125 26.191406 0.828125 C 36.851562 0.828125 44.824219 -5.488281 47.203125 -14.492188 L 37.371094 -14.492188 C 35.609375 -10.144531 31.46875 -7.351562 26.191406 -7.351562 C 19.253906 -7.351562 14.390625 -12.214844 13.871094 -19.152344 L 47.824219 -19.152344 Z M 26.191406 -33.953125 C 31.574219 -33.953125 35.402344 -30.953125 37.164062 -26.191406 L 14.699219 -26.191406 C 16.5625 -30.847656 20.601562 -33.953125 26.191406 -33.953125 Z M 26.191406 -33.953125 "/></g></g></g><g fill="#e2424d" fill-opacity="1"><g transform="translate(319.329934, 98.103815)"><g><path d="M 28.777344 -33.125 L 28.777344 -41.40625 L 18.324219 -41.40625 L 18.324219 -58.382812 L 8.488281 -58.382812 L 8.488281 -41.40625 L 1.65625 -41.40625 L 1.65625 -33.125 L 8.488281 -33.125 L 8.488281 -12.835938 C 8.488281 -5.175781 15.011719 0.828125 22.566406 0.828125 C 24.949219 0.828125 27.535156 0.207031 28.570312 -0.519531 L 28.570312 -8.074219 L 23.808594 -8.074219 C 20.703125 -8.074219 18.324219 -10.351562 18.324219 -13.976562 L 18.324219 -33.125 Z M 28.777344 -33.125 "/></g></g></g></svg>