<svg xmlns="http://www.w3.org/2000/svg" xmlns:xlink="http://www.w3.org/1999/xlink" width="200" zoomAndPan="magnify" viewBox="0 0 150 149.999998" height="200" preserveAspectRatio="xMidYMid meet" version="1.0"><defs><clipPath id="3523b4295a"><path d="M 7.441406 5.492188 L 141.980469 5.492188 L 141.980469 140.03125 L 7.441406 140.03125 Z M 7.441406 5.492188 " clip-rule="nonzero"/></clipPath><clipPath id="3a6ce67347"><path d="M 25.402344 22.90625 L 126.617188 22.90625 L 126.617188 124.117188 L 25.402344 124.117188 Z M 25.402344 22.90625 " clip-rule="nonzero"/></clipPath><clipPath id="084eb02062"><path d="M 33.625 37.546875 L 110.152344 37.546875 L 110.152344 114.074219 L 33.625 114.074219 Z M 33.625 37.546875 " clip-rule="nonzero"/></clipPath></defs><g clip-path="url(#3523b4295a)"><path fill="#00bf63" d="M 142.535156 73.0625 C 142.535156 110.34375 112.3125 140.570312 75.03125 140.570312 C 70.105469 140.574219 65.238281 140.046875 60.429688 138.984375 C 55.621094 137.921875 50.984375 136.351562 46.519531 134.269531 C 43.824219 133.011719 41.003906 132.199219 38.050781 131.839844 C 35.097656 131.476562 32.160156 131.585938 29.242188 132.15625 L 18.703125 134.230469 C 14.238281 135.113281 10.757812 130.402344 12.910156 126.394531 C 17.078125 118.625 17.410156 109.339844 13.714844 101.335938 C 11.679688 96.929688 10.140625 92.355469 9.097656 87.617188 C 8.054688 82.875 7.53125 78.078125 7.527344 73.226562 C 7.4375 35.910156 37.613281 5.609375 74.929688 5.558594 C 112.257812 5.503906 142.535156 35.746094 142.535156 73.0625 Z M 142.535156 73.0625 " fill-opacity="1" fill-rule="nonzero"/></g><path fill="#ffffff" d="M 132.816406 73.0625 C 132.816406 74.957031 132.722656 76.84375 132.539062 78.726562 C 132.351562 80.609375 132.074219 82.480469 131.707031 84.335938 C 131.335938 86.191406 130.878906 88.027344 130.328125 89.835938 C 129.777344 91.648438 129.140625 93.425781 128.417969 95.175781 C 127.695312 96.925781 126.886719 98.632812 125.992188 100.300781 C 125.101562 101.972656 124.128906 103.59375 123.078125 105.167969 C 122.027344 106.738281 120.902344 108.257812 119.699219 109.722656 C 118.5 111.183594 117.230469 112.585938 115.890625 113.921875 C 114.554688 115.261719 113.152344 116.53125 111.691406 117.730469 C 110.226562 118.933594 108.707031 120.058594 107.136719 121.109375 C 105.5625 122.160156 103.941406 123.132812 102.269531 124.023438 C 100.601562 124.917969 98.894531 125.726562 97.144531 126.449219 C 95.394531 127.171875 93.617188 127.808594 91.804688 128.359375 C 89.996094 128.910156 88.160156 129.367188 86.304688 129.738281 C 84.449219 130.105469 82.578125 130.382812 80.695312 130.570312 C 78.8125 130.753906 76.921875 130.847656 75.03125 130.847656 C 73.136719 130.847656 71.25 130.753906 69.367188 130.570312 C 67.484375 130.382812 65.613281 130.105469 63.757812 129.738281 C 61.902344 129.367188 60.066406 128.910156 58.257812 128.359375 C 56.445312 127.808594 54.667969 127.171875 52.917969 126.449219 C 51.167969 125.726562 49.460938 124.917969 47.792969 124.023438 C 46.121094 123.132812 44.5 122.160156 42.925781 121.109375 C 41.355469 120.058594 39.835938 118.933594 38.371094 117.730469 C 36.910156 116.53125 35.507812 115.261719 34.171875 113.921875 C 32.832031 112.585938 31.5625 111.183594 30.363281 109.722656 C 29.160156 108.257812 28.035156 106.738281 26.984375 105.167969 C 25.933594 103.59375 24.960938 101.972656 24.070312 100.300781 C 23.175781 98.632812 22.367188 96.925781 21.644531 95.175781 C 20.921875 93.425781 20.285156 91.648438 19.734375 89.835938 C 19.183594 88.027344 18.726562 86.191406 18.355469 84.335938 C 17.988281 82.480469 17.710938 80.609375 17.523438 78.726562 C 17.339844 76.84375 17.246094 74.957031 17.246094 73.0625 C 17.246094 71.171875 17.339844 69.28125 17.523438 67.398438 C 17.710938 65.515625 17.988281 63.644531 18.355469 61.789062 C 18.726562 59.933594 19.183594 58.097656 19.734375 56.289062 C 20.285156 54.476562 20.921875 52.699219 21.644531 50.949219 C 22.367188 49.199219 23.175781 47.492188 24.070312 45.824219 C 24.960938 44.152344 25.933594 42.53125 26.984375 40.957031 C 28.035156 39.386719 29.160156 37.867188 30.363281 36.402344 C 31.5625 34.941406 32.832031 33.539062 34.171875 32.203125 C 35.507812 30.863281 36.910156 29.59375 38.371094 28.394531 C 39.835938 27.195312 41.355469 26.066406 42.925781 25.015625 C 44.5 23.964844 46.121094 22.992188 47.792969 22.101562 C 49.460938 21.207031 51.167969 20.398438 52.917969 19.675781 C 54.667969 18.953125 56.445312 18.316406 58.257812 17.765625 C 60.066406 17.214844 61.902344 16.757812 63.757812 16.386719 C 65.613281 16.019531 67.484375 15.742188 69.367188 15.554688 C 71.25 15.371094 73.136719 15.277344 75.03125 15.277344 C 76.921875 15.277344 78.8125 15.371094 80.695312 15.554688 C 82.578125 15.742188 84.449219 16.019531 86.304688 16.386719 C 88.160156 16.757812 89.996094 17.214844 91.804688 17.765625 C 93.617188 18.316406 95.394531 18.953125 97.144531 19.675781 C 98.894531 20.398438 100.601562 21.207031 102.269531 22.101562 C 103.941406 22.992188 105.5625 23.964844 107.136719 25.015625 C 108.707031 26.066406 110.226562 27.195312 111.691406 28.394531 C 113.152344 29.59375 114.554688 30.863281 115.890625 32.203125 C 117.230469 33.539062 118.5 34.941406 119.699219 36.402344 C 120.902344 37.867188 122.027344 39.386719 123.078125 40.957031 C 124.128906 42.53125 125.101562 44.152344 125.992188 45.824219 C 126.886719 47.492188 127.695312 49.199219 128.417969 50.949219 C 129.140625 52.699219 129.777344 54.476562 130.328125 56.289062 C 130.878906 58.097656 131.335938 59.933594 131.707031 61.789062 C 132.074219 63.644531 132.351562 65.515625 132.539062 67.398438 C 132.722656 69.28125 132.816406 71.171875 132.816406 73.0625 Z M 132.816406 73.0625 " fill-opacity="1" fill-rule="nonzero"/><path fill="#00bf63" d="M 122.496094 73.0625 C 122.496094 74.617188 122.421875 76.167969 122.269531 77.714844 C 122.117188 79.261719 121.890625 80.796875 121.585938 82.324219 C 121.28125 83.847656 120.90625 85.355469 120.453125 86.839844 C 120.003906 88.328125 119.480469 89.792969 118.882812 91.226562 C 118.289062 92.664062 117.625 94.066406 116.894531 95.4375 C 116.160156 96.808594 115.363281 98.140625 114.5 99.433594 C 113.632812 100.726562 112.710938 101.972656 111.722656 103.175781 C 110.738281 104.375 109.695312 105.527344 108.59375 106.625 C 107.496094 107.726562 106.34375 108.769531 105.144531 109.753906 C 103.941406 110.742188 102.695312 111.664062 101.402344 112.53125 C 100.109375 113.394531 98.777344 114.191406 97.40625 114.925781 C 96.035156 115.65625 94.632812 116.320312 93.195312 116.914062 C 91.757812 117.511719 90.296875 118.035156 88.808594 118.484375 C 87.324219 118.9375 85.816406 119.3125 84.292969 119.617188 C 82.765625 119.921875 81.230469 120.148438 79.683594 120.300781 C 78.136719 120.453125 76.585938 120.527344 75.03125 120.527344 C 73.476562 120.527344 71.925781 120.453125 70.378906 120.300781 C 68.832031 120.148438 67.296875 119.921875 65.769531 119.617188 C 64.246094 119.3125 62.738281 118.9375 61.253906 118.484375 C 59.765625 118.035156 58.304688 117.511719 56.867188 116.914062 C 55.429688 116.320312 54.027344 115.65625 52.65625 114.925781 C 51.285156 114.191406 49.953125 113.394531 48.660156 112.53125 C 47.367188 111.664062 46.121094 110.742188 44.917969 109.753906 C 43.71875 108.769531 42.566406 107.726562 41.46875 106.625 C 40.367188 105.527344 39.324219 104.375 38.339844 103.175781 C 37.351562 101.972656 36.429688 100.726562 35.5625 99.433594 C 34.699219 98.140625 33.902344 96.808594 33.167969 95.4375 C 32.4375 94.066406 31.773438 92.664062 31.179688 91.226562 C 30.582031 89.792969 30.058594 88.328125 29.609375 86.839844 C 29.15625 85.355469 28.78125 83.847656 28.476562 82.324219 C 28.171875 80.796875 27.945312 79.261719 27.792969 77.714844 C 27.640625 76.167969 27.566406 74.617188 27.566406 73.0625 C 27.566406 71.507812 27.640625 69.957031 27.792969 68.410156 C 27.945312 66.863281 28.171875 65.328125 28.476562 63.800781 C 28.78125 62.277344 29.15625 60.773438 29.609375 59.285156 C 30.058594 57.796875 30.582031 56.335938 31.179688 54.898438 C 31.773438 53.460938 32.4375 52.058594 33.167969 50.6875 C 33.902344 49.316406 34.699219 47.984375 35.5625 46.691406 C 36.429688 45.398438 37.351562 44.152344 38.339844 42.949219 C 39.324219 41.75 40.367188 40.597656 41.46875 39.5 C 42.566406 38.398438 43.71875 37.355469 44.917969 36.371094 C 46.121094 35.382812 47.367188 34.460938 48.660156 33.597656 C 49.953125 32.730469 51.285156 31.933594 52.65625 31.199219 C 54.027344 30.46875 55.429688 29.804688 56.867188 29.210938 C 58.304688 28.613281 59.765625 28.089844 61.253906 27.640625 C 62.738281 27.1875 64.246094 26.8125 65.769531 26.507812 C 67.296875 26.203125 68.832031 25.976562 70.378906 25.824219 C 71.925781 25.671875 73.476562 25.597656 75.03125 25.597656 C 76.585938 25.597656 78.136719 25.671875 79.683594 25.824219 C 81.230469 25.976562 82.765625 26.203125 84.292969 26.507812 C 85.816406 26.8125 87.324219 27.1875 88.808594 27.640625 C 90.296875 28.089844 91.757812 28.613281 93.195312 29.210938 C 94.632812 29.804688 96.035156 30.46875 97.40625 31.199219 C 98.777344 31.933594 100.109375 32.730469 101.402344 33.597656 C 102.695312 34.460938 103.941406 35.382812 105.144531 36.371094 C 106.34375 37.355469 107.496094 38.398438 108.59375 39.5 C 109.695312 40.597656 110.738281 41.75 111.722656 42.949219 C 112.710938 44.152344 113.632812 45.398438 114.5 46.691406 C 115.363281 47.984375 116.160156 49.316406 116.894531 50.6875 C 117.625 52.058594 118.289062 53.460938 118.882812 54.898438 C 119.480469 56.335938 120.003906 57.796875 120.453125 59.285156 C 120.90625 60.773438 121.28125 62.277344 121.585938 63.800781 C 121.890625 65.328125 122.117188 66.863281 122.269531 68.410156 C 122.421875 69.957031 122.496094 71.507812 122.496094 73.0625 Z M 122.496094 73.0625 " fill-opacity="1" fill-rule="nonzero"/><path fill="#ffffff" d="M 68.074219 62.410156 L 65.675781 55.246094 C 65.539062 54.835938 65.363281 54.445312 65.140625 54.074219 C 64.921875 53.703125 64.667969 53.359375 64.375 53.039062 C 64.082031 52.722656 63.761719 52.4375 63.410156 52.191406 C 63.054688 51.941406 62.683594 51.730469 62.285156 51.558594 C 61.890625 51.390625 61.480469 51.261719 61.054688 51.179688 C 60.632812 51.09375 60.207031 51.054688 59.773438 51.0625 C 59.34375 51.070312 58.917969 51.121094 58.496094 51.21875 C 58.074219 51.3125 57.671875 51.453125 57.28125 51.636719 L 53.410156 53.4375 C 52.78125 53.730469 52.214844 54.121094 51.71875 54.609375 C 51.222656 55.09375 50.816406 55.648438 50.507812 56.273438 C 50.199219 56.894531 50.003906 57.550781 49.917969 58.242188 C 49.832031 58.933594 49.863281 59.617188 50.011719 60.296875 C 52.433594 71.496094 61.335938 98.308594 91.386719 101.652344 C 91.984375 101.71875 92.578125 101.699219 93.167969 101.589844 C 93.757812 101.484375 94.320312 101.292969 94.855469 101.019531 C 95.390625 100.746094 95.875 100.402344 96.308594 99.988281 C 96.738281 99.570312 97.105469 99.101562 97.402344 98.582031 L 99.394531 95.054688 C 99.59375 94.707031 99.753906 94.339844 99.882812 93.957031 C 100.007812 93.578125 100.09375 93.1875 100.144531 92.785156 C 100.195312 92.386719 100.203125 91.988281 100.171875 91.585938 C 100.144531 91.183594 100.074219 90.789062 99.96875 90.402344 C 99.859375 90.015625 99.714844 89.640625 99.535156 89.28125 C 99.355469 88.921875 99.140625 88.585938 98.890625 88.265625 C 98.644531 87.949219 98.367188 87.660156 98.0625 87.398438 C 97.757812 87.136719 97.429688 86.90625 97.082031 86.707031 L 97.039062 86.683594 L 91.683594 83.707031 C 91.105469 83.382812 90.488281 83.160156 89.835938 83.039062 C 89.183594 82.917969 88.527344 82.902344 87.871094 82.992188 C 87.214844 83.082031 86.589844 83.273438 85.992188 83.566406 C 85.398438 83.863281 84.867188 84.242188 84.394531 84.710938 C 83.925781 85.175781 83.398438 85.554688 82.808594 85.847656 C 82.214844 86.140625 81.59375 86.332031 80.941406 86.425781 C 80.289062 86.519531 79.636719 86.507812 78.988281 86.386719 C 78.339844 86.269531 77.726562 86.054688 77.148438 85.738281 C 73.890625 83.949219 69.425781 80.894531 66.296875 76.386719 C 65.945312 75.882812 65.675781 75.335938 65.488281 74.75 C 65.300781 74.164062 65.203125 73.5625 65.195312 72.945312 C 65.1875 72.328125 65.269531 71.726562 65.445312 71.132812 C 65.617188 70.542969 65.875 69.992188 66.214844 69.476562 L 67.367188 67.746094 C 67.890625 66.960938 68.214844 66.097656 68.339844 65.160156 C 68.464844 64.222656 68.375 63.304688 68.074219 62.410156 Z M 68.074219 62.410156 " fill-opacity="1" fill-rule="nonzero"/><g clip-path="url(#3a6ce67347)"><path fill="#ffffff" d="M 126.617188 73.511719 C 126.617188 75.167969 126.535156 76.820312 126.375 78.472656 C 126.210938 80.121094 125.96875 81.757812 125.644531 83.382812 C 125.320312 85.007812 124.917969 86.617188 124.4375 88.203125 C 123.957031 89.789062 123.398438 91.347656 122.765625 92.878906 C 122.128906 94.410156 121.421875 95.90625 120.640625 97.367188 C 119.859375 98.828125 119.007812 100.25 118.089844 101.625 C 117.167969 103.003906 116.179688 104.335938 115.128906 105.617188 C 114.078125 106.898438 112.964844 108.125 111.792969 109.296875 C 110.621094 110.46875 109.394531 111.578125 108.113281 112.628906 C 106.832031 113.683594 105.503906 114.667969 104.125 115.589844 C 102.746094 116.511719 101.328125 117.359375 99.867188 118.140625 C 98.40625 118.921875 96.90625 119.632812 95.375 120.265625 C 93.84375 120.898438 92.285156 121.457031 90.699219 121.9375 C 89.113281 122.421875 87.507812 122.820312 85.882812 123.144531 C 84.257812 123.46875 82.621094 123.710938 80.96875 123.875 C 79.320312 124.035156 77.667969 124.117188 76.011719 124.117188 C 74.351562 124.117188 72.699219 124.035156 71.050781 123.875 C 69.402344 123.710938 67.761719 123.46875 66.136719 123.144531 C 64.511719 122.820312 62.90625 122.421875 61.320312 121.9375 C 59.734375 121.457031 58.175781 120.898438 56.644531 120.265625 C 55.113281 119.632812 53.617188 118.921875 52.15625 118.140625 C 50.691406 117.359375 49.273438 116.511719 47.894531 115.589844 C 46.515625 114.667969 45.1875 113.683594 43.90625 112.628906 C 42.625 111.578125 41.398438 110.46875 40.226562 109.296875 C 39.054688 108.125 37.941406 106.898438 36.890625 105.617188 C 35.839844 104.335938 34.851562 103.003906 33.933594 101.625 C 33.011719 100.25 32.160156 98.828125 31.378906 97.367188 C 30.597656 95.90625 29.890625 94.410156 29.253906 92.878906 C 28.621094 91.347656 28.0625 89.789062 27.582031 88.203125 C 27.101562 86.617188 26.699219 85.007812 26.375 83.382812 C 26.050781 81.757812 25.808594 80.121094 25.648438 78.472656 C 25.484375 76.820312 25.402344 75.167969 25.402344 73.511719 C 25.402344 71.855469 25.484375 70.199219 25.648438 68.550781 C 25.808594 66.902344 26.050781 65.265625 26.375 63.636719 C 26.699219 62.011719 27.101562 60.40625 27.582031 58.820312 C 28.0625 57.234375 28.621094 55.675781 29.253906 54.144531 C 29.890625 52.613281 30.597656 51.117188 31.378906 49.65625 C 32.160156 48.195312 33.011719 46.773438 33.933594 45.394531 C 34.851562 44.015625 35.839844 42.6875 36.890625 41.40625 C 37.941406 40.125 39.054688 38.898438 40.226562 37.726562 C 41.398438 36.554688 42.625 35.441406 43.90625 34.390625 C 45.1875 33.339844 46.515625 32.355469 47.894531 31.433594 C 49.273438 30.511719 50.691406 29.660156 52.15625 28.878906 C 53.617188 28.097656 55.113281 27.390625 56.644531 26.757812 C 58.175781 26.121094 59.734375 25.566406 61.320312 25.082031 C 62.90625 24.601562 64.511719 24.199219 66.136719 23.875 C 67.761719 23.554688 69.402344 23.3125 71.050781 23.148438 C 72.699219 22.984375 74.351562 22.90625 76.011719 22.90625 C 77.667969 22.90625 79.320312 22.984375 80.96875 23.148438 C 82.621094 23.3125 84.257812 23.554688 85.882812 23.875 C 87.507812 24.199219 89.113281 24.601562 90.699219 25.082031 C 92.285156 25.566406 93.84375 26.121094 95.375 26.757812 C 96.90625 27.390625 98.40625 28.097656 99.867188 28.878906 C 101.328125 29.660156 102.746094 30.511719 104.125 31.433594 C 105.503906 32.355469 106.832031 33.339844 108.113281 34.390625 C 109.394531 35.441406 110.621094 36.554688 111.792969 37.726562 C 112.964844 38.898438 114.078125 40.125 115.128906 41.40625 C 116.179688 42.6875 117.167969 44.015625 118.089844 45.394531 C 119.007812 46.773438 119.859375 48.195312 120.640625 49.65625 C 121.421875 51.117188 122.128906 52.613281 122.765625 54.144531 C 123.398438 55.675781 123.957031 57.234375 124.4375 58.820312 C 124.917969 60.40625 125.320312 62.011719 125.644531 63.636719 C 125.96875 65.265625 126.210938 66.902344 126.375 68.550781 C 126.535156 70.199219 126.617188 71.855469 126.617188 73.511719 Z M 126.617188 73.511719 " fill-opacity="1" fill-rule="nonzero"/></g><g clip-path="url(#084eb02062)"><path fill="#00bf63" d="M 102.042969 37.546875 C 89.238281 37.546875 72.054688 46.332031 60.515625 61.4375 L 50.949219 61.4375 C 44.035156 61.4375 40.074219 66.59375 37.347656 72.050781 L 33.695312 79.355469 L 50.949219 79.355469 L 59.910156 88.3125 L 68.867188 97.273438 L 68.867188 114.527344 L 76.171875 110.875 C 81.625 108.148438 86.785156 104.183594 86.785156 97.273438 L 86.785156 87.707031 C 101.890625 76.167969 110.675781 58.984375 110.675781 46.179688 L 110.675781 37.546875 Z M 86.785156 55.464844 C 90.085938 55.464844 92.757812 58.136719 92.757812 61.4375 C 92.757812 64.734375 90.085938 67.410156 86.785156 67.410156 C 83.488281 67.410156 80.8125 64.734375 80.8125 61.4375 C 80.8125 58.136719 83.488281 55.464844 86.785156 55.464844 Z M 47.964844 91.300781 L 44.976562 94.285156 C 40.664062 98.601562 39.003906 109.21875 39.003906 109.21875 C 39.003906 109.21875 49.144531 108.035156 53.9375 103.246094 L 56.921875 100.257812 Z M 47.964844 91.300781 " fill-opacity="1" fill-rule="nonzero"/></g></svg>